<svg width="203" height="202" viewBox="0 0 203 202" fill="none" xmlns="http://www.w3.org/2000/svg">
<path d="M186.719 67.4336C185.537 66.0841 184.081 65.0018 182.449 64.2589C180.816 63.516 179.044 63.1296 177.25 63.1254H148.552L106.234 14.7795C105.642 14.1078 104.913 13.5699 104.097 13.2014C103.281 12.8329 102.395 12.6423 101.5 12.6423C100.604 12.6423 99.7189 12.8329 98.9026 13.2014C98.0863 13.5699 97.3578 14.1078 96.7654 14.7795L54.448 63.1254H25.7498C23.9513 63.1254 22.1735 63.5097 20.5355 64.2525C18.8976 64.9954 17.4372 66.0796 16.2523 67.4327C15.0674 68.7857 14.1852 70.3763 13.6649 72.0979C13.1446 73.8195 12.9981 75.6325 13.2353 77.4153L24.1717 159.486C24.5771 162.519 26.0704 165.301 28.3739 167.316C30.6773 169.331 33.634 170.44 36.6941 170.438H166.306C169.366 170.44 172.322 169.331 174.626 167.316C176.929 165.301 178.422 162.519 178.828 159.486L189.772 77.4232C190.006 75.6366 189.854 73.8208 189.327 72.0978C188.8 70.3747 187.911 68.7844 186.719 67.4336ZM64.8873 145.188C64.6744 145.199 64.461 145.199 64.2482 145.188C62.6778 145.196 61.1609 144.618 59.9937 143.567C58.8264 142.517 58.0927 141.069 57.9357 139.507L53.5169 95.3191C53.3495 93.6533 53.8507 91.9892 54.9102 90.6929C55.9697 89.3967 57.5008 88.5743 59.1666 88.4069C60.8324 88.2395 62.4965 88.7407 63.7928 89.8002C65.0891 90.8597 65.9114 92.3908 66.0788 94.0566L70.4975 138.244C70.6743 139.909 70.1826 141.576 69.1305 142.878C68.0783 144.18 66.552 145.011 64.8873 145.188ZM107.812 138.875C107.812 140.55 107.147 142.155 105.963 143.339C104.78 144.523 103.174 145.188 101.5 145.188C99.8256 145.188 98.22 144.523 97.0362 143.339C95.8524 142.155 95.1873 140.55 95.1873 138.875V94.6879C95.1873 93.0137 95.8524 91.4081 97.0362 90.2243C98.22 89.0404 99.8256 88.3754 101.5 88.3754C103.174 88.3754 104.78 89.0404 105.963 90.2243C107.147 91.4081 107.812 93.0137 107.812 94.6879V138.875ZM71.2235 63.1254L101.5 28.525L131.776 63.1254H71.2235ZM149.443 95.3191L145.024 139.507C144.868 141.062 144.14 142.505 142.981 143.554C141.822 144.604 140.315 145.186 138.751 145.188C138.539 145.199 138.325 145.199 138.112 145.188C137.287 145.105 136.487 144.86 135.757 144.468C135.026 144.076 134.38 143.544 133.856 142.902C133.331 142.26 132.938 141.521 132.699 140.727C132.46 139.934 132.38 139.101 132.463 138.276L136.881 94.0882C137.049 92.4224 137.871 90.8913 139.167 89.8318C140.464 88.7722 142.128 88.2711 143.794 88.4385C145.459 88.6059 146.99 89.4282 148.05 90.7245C149.109 92.0208 149.611 93.6849 149.443 95.3507V95.3191Z" fill="#1B1C1E" fill-opacity="0.4"/>
</svg>
