<svg width="89" height="88" viewBox="0 0 89 88" fill="none" xmlns="http://www.w3.org/2000/svg">
<rect x="0.5" width="88" height="88" rx="44" fill="white"/>
<rect x="0.5" width="88" height="88" rx="44" fill="#065DA7" fill-opacity="0.08"/>
<path d="M44.5 24C40.5444 24 36.6776 25.173 33.3886 27.3706C30.0996 29.5682 27.5362 32.6918 26.0224 36.3463C24.5087 40.0008 24.1126 44.0222 24.8843 47.9018C25.656 51.7814 27.5608 55.3451 30.3579 58.1421C33.1549 60.9392 36.7186 62.844 40.5982 63.6157C44.4778 64.3874 48.4991 63.9913 52.1537 62.4776C55.8082 60.9638 58.9318 58.4004 61.1294 55.1114C63.327 51.8224 64.5 47.9556 64.5 44C64.4944 38.6974 62.3855 33.6136 58.636 29.864C54.8864 26.1145 49.8026 24.0056 44.5 24ZM53.2808 40.4731L42.5115 51.2423C42.3687 51.3853 42.199 51.4988 42.0122 51.5762C41.8255 51.6537 41.6253 51.6935 41.4231 51.6935C41.2209 51.6935 41.0207 51.6537 40.8339 51.5762C40.6472 51.4988 40.4775 51.3853 40.3346 51.2423L35.7192 46.6269C35.4306 46.3382 35.2684 45.9467 35.2684 45.5385C35.2684 45.1302 35.4306 44.7387 35.7192 44.45C36.0079 44.1613 36.3994 43.9991 36.8077 43.9991C37.216 43.9991 37.6075 44.1613 37.8962 44.45L41.4231 47.9788L51.1038 38.2962C51.2468 38.1532 51.4165 38.0398 51.6032 37.9625C51.79 37.8851 51.9902 37.8453 52.1923 37.8453C52.3945 37.8453 52.5946 37.8851 52.7814 37.9625C52.9681 38.0398 53.1378 38.1532 53.2808 38.2962C53.4237 38.4391 53.5371 38.6088 53.6145 38.7955C53.6918 38.9823 53.7316 39.1825 53.7316 39.3846C53.7316 39.5868 53.6918 39.7869 53.6145 39.9737C53.5371 40.1604 53.4237 40.3301 53.2808 40.4731Z" fill="#065DA7"/>
</svg>
