<svg width="133" height="132" viewBox="0 0 133 132" fill="none" xmlns="http://www.w3.org/2000/svg">
<rect x="0.5" width="132" height="132" rx="66" fill="white"/>
<rect x="0.5" width="132" height="132" rx="66" fill="#065DA7" fill-opacity="0.08"/>
<path d="M94.625 28.5H80.4609C78.7051 26.5341 76.5538 24.9612 74.1479 23.8842C71.7421 22.8073 69.1359 22.2506 66.5 22.2506C63.8641 22.2506 61.2579 22.8073 58.8521 23.8842C56.4462 24.9612 54.2949 26.5341 52.5391 28.5H38.375C36.7174 28.5 35.1277 29.1585 33.9556 30.3306C32.7835 31.5027 32.125 33.0924 32.125 34.75V100.375C32.125 102.033 32.7835 103.622 33.9556 104.794C35.1277 105.967 36.7174 106.625 38.375 106.625H94.625C96.2826 106.625 97.8723 105.967 99.0444 104.794C100.217 103.622 100.875 102.033 100.875 100.375V34.75C100.875 33.0924 100.217 31.5027 99.0444 30.3306C97.8723 29.1585 96.2826 28.5 94.625 28.5ZM66.5 28.5C69.8152 28.5 72.9946 29.817 75.3388 32.1612C77.683 34.5054 79 37.6848 79 41H54C54 37.6848 55.317 34.5054 57.6612 32.1612C60.0054 29.817 63.1848 28.5 66.5 28.5ZM79 78.5H54C53.1712 78.5 52.3763 78.1708 51.7903 77.5847C51.2042 76.9987 50.875 76.2038 50.875 75.375C50.875 74.5462 51.2042 73.7513 51.7903 73.1653C52.3763 72.5792 53.1712 72.25 54 72.25H79C79.8288 72.25 80.6237 72.5792 81.2097 73.1653C81.7958 73.7513 82.125 74.5462 82.125 75.375C82.125 76.2038 81.7958 76.9987 81.2097 77.5847C80.6237 78.1708 79.8288 78.5 79 78.5ZM79 66H54C53.1712 66 52.3763 65.6708 51.7903 65.0847C51.2042 64.4987 50.875 63.7038 50.875 62.875C50.875 62.0462 51.2042 61.2513 51.7903 60.6653C52.3763 60.0792 53.1712 59.75 54 59.75H79C79.8288 59.75 80.6237 60.0792 81.2097 60.6653C81.7958 61.2513 82.125 62.0462 82.125 62.875C82.125 63.7038 81.7958 64.4987 81.2097 65.0847C80.6237 65.6708 79.8288 66 79 66Z" fill="#065DA7" fill-opacity="0.6"/>
</svg>
