<svg width="165" height="139" viewBox="0 0 165 139" fill="none" xmlns="http://www.w3.org/2000/svg">
<path d="M97.5416 89.9425L91.7433 41.1494C91.5553 39.5597 90.7877 38.0951 89.5874 37.0358C88.3871 35.9765 86.8384 35.397 85.2376 35.4081H71.5633C71.5633 30.2318 69.5071 25.2675 65.8469 21.6073C62.1867 17.9471 57.2224 15.8909 52.0461 15.8909C46.8698 15.8909 41.9055 17.9471 38.2453 21.6073C34.5851 25.2675 32.5288 30.2318 32.5288 35.4081H18.8383C17.2375 35.397 15.6888 35.9765 14.4885 37.0358C13.2882 38.0951 12.5206 39.5597 12.3326 41.1494L6.53432 89.9425C6.42806 90.8532 6.51549 91.7761 6.79088 92.6506C7.06627 93.5251 7.5234 94.3316 8.13229 95.017C8.74558 95.7054 9.49712 96.2567 10.3379 96.6351C11.1786 97.0134 12.0897 97.2102 13.0116 97.2127H91.048C91.9755 97.2148 92.8928 97.0202 93.7395 96.6417C94.5862 96.2632 95.3429 95.7095 95.9599 95.017C96.5659 94.3302 97.02 93.5231 97.2926 92.6487C97.5652 91.7742 97.65 90.8521 97.5416 89.9425ZM52.0461 22.3966C55.4969 22.3966 58.8065 23.7675 61.2466 26.2076C63.6867 28.6477 65.0576 31.9572 65.0576 35.4081H39.0346C39.0346 31.9572 40.4054 28.6477 42.8456 26.2076C45.2857 23.7675 48.5952 22.3966 52.0461 22.3966Z" fill="#A4A4A5"/>
<g clip-path="url(#clip0_555_167)">
<path d="M124.71 114.47L140.281 67.8662C140.789 66.3481 140.719 64.696 140.086 63.226C139.452 61.7559 138.299 60.5711 136.846 59.8982L124.478 54.0648C126.687 49.3832 126.945 44.0161 125.196 39.1442C123.447 34.2723 119.834 30.2948 115.152 28.0866C110.47 25.8785 105.103 25.6205 100.232 27.3695C95.3597 29.1185 91.3821 32.7312 89.174 37.4129L76.7917 31.5726C75.3485 30.8797 73.7006 30.7431 72.1631 31.1891C70.6257 31.6351 69.3066 32.6323 68.4584 33.99L42.3993 75.647C41.9147 76.4254 41.6001 77.2973 41.4761 78.2058C41.3521 79.1142 41.4215 80.0386 41.6798 80.9183C41.9408 81.8025 42.3853 82.6218 42.9844 83.3226C43.5834 84.0234 44.3234 84.5901 45.1562 84.9857L115.736 118.276C116.574 118.673 117.486 118.888 118.413 118.907C119.341 118.926 120.261 118.748 121.115 118.385C121.956 118.022 122.711 117.486 123.331 116.812C123.95 116.137 124.42 115.339 124.71 114.47ZM112.377 33.9707C115.498 35.4428 117.906 38.0945 119.072 41.3424C120.238 44.5903 120.066 48.1684 118.594 51.2895L95.058 40.1882C96.5301 37.0671 99.1818 34.6586 102.43 33.4926C105.678 32.3266 109.256 32.4986 112.377 33.9707Z" fill="#A4A4A5"/>
</g>
<defs>
<clipPath id="clip0_555_167">
<rect width="104.092" height="104.092" fill="white" transform="translate(70.8547 -0.000244141) rotate(25.2517)"/>
</clipPath>
</defs>
</svg>
