<svg width="177" height="159" viewBox="0 0 177 159" fill="none" xmlns="http://www.w3.org/2000/svg">
<path d="M173.719 55.4336C172.537 54.0841 171.081 53.0018 169.449 52.2589C167.816 51.516 166.044 51.1296 164.25 51.1254H135.552L93.2342 2.77951C92.6418 2.10781 91.9133 1.56986 91.097 1.20138C90.2807 0.832902 89.3954 0.642334 88.4998 0.642334C87.6042 0.642334 86.7189 0.832902 85.9026 1.20138C85.0863 1.56986 84.3578 2.10781 83.7654 2.77951L41.448 51.1254H12.7498C10.9513 51.1254 9.17348 51.5097 7.53552 52.2525C5.89756 52.9954 4.43722 54.0796 3.25229 55.4327C2.06737 56.7857 1.18521 58.3763 0.664881 60.0979C0.144557 61.8195 -0.00191893 63.6325 0.235263 65.4153L11.1717 147.486C11.5771 150.519 13.0704 153.301 15.3739 155.316C17.6773 157.331 20.634 158.44 23.6941 158.438H153.306C156.366 158.44 159.322 157.331 161.626 155.316C163.929 153.301 165.422 150.519 165.828 147.486L176.772 65.4232C177.006 63.6366 176.854 61.8208 176.327 60.0978C175.8 58.3747 174.911 56.7844 173.719 55.4336ZM51.8873 133.188C51.6744 133.199 51.461 133.199 51.2482 133.188C49.6778 133.196 48.1609 132.618 46.9937 131.567C45.8264 130.517 45.0927 129.069 44.9357 127.507L40.5169 83.3191C40.3495 81.6533 40.8507 79.9892 41.9102 78.6929C42.9697 77.3967 44.5008 76.5743 46.1666 76.4069C47.8324 76.2395 49.4965 76.7407 50.7928 77.8002C52.0891 78.8597 52.9114 80.3908 53.0788 82.0566L57.4975 126.244C57.6743 127.909 57.1826 129.576 56.1305 130.878C55.0783 132.18 53.552 133.011 51.8873 133.188ZM94.8123 126.875C94.8123 128.55 94.1472 130.155 92.9634 131.339C91.7796 132.523 90.174 133.188 88.4998 133.188C86.8256 133.188 85.22 132.523 84.0362 131.339C82.8524 130.155 82.1873 128.55 82.1873 126.875V82.6879C82.1873 81.0137 82.8524 79.4081 84.0362 78.2243C85.22 77.0404 86.8256 76.3754 88.4998 76.3754C90.174 76.3754 91.7796 77.0404 92.9634 78.2243C94.1472 79.4081 94.8123 81.0137 94.8123 82.6879V126.875ZM58.2235 51.1254L88.4998 16.525L118.776 51.1254H58.2235ZM136.443 83.3191L132.024 127.507C131.868 129.062 131.14 130.505 129.981 131.554C128.822 132.604 127.315 133.186 125.751 133.188C125.539 133.199 125.325 133.199 125.112 133.188C124.287 133.105 123.487 132.86 122.757 132.468C122.026 132.076 121.38 131.544 120.856 130.902C120.331 130.26 119.938 129.521 119.699 128.727C119.46 127.934 119.38 127.101 119.463 126.276L123.881 82.0882C124.049 80.4224 124.871 78.8913 126.167 77.8318C127.464 76.7722 129.128 76.2711 130.794 76.4385C132.459 76.6059 133.99 77.4282 135.05 78.7245C136.109 80.0208 136.611 81.6849 136.443 83.3507V83.3191Z" fill="#1B1C1E" fill-opacity="0.4"/>
</svg>
