<svg width="186" height="185" viewBox="0 0 186 185" fill="none" xmlns="http://www.w3.org/2000/svg">
<path d="M32.3801 154.519C65.0795 171.237 118.095 171.238 150.794 154.52C183.493 137.801 183.493 110.696 150.794 93.9776C118.095 77.2591 65.0788 77.2591 32.3794 93.9772C-0.319293 110.695 -0.319296 137.801 32.3801 154.519Z" fill="#F5F5F5"/>
<path d="M139.321 127.811C141.113 128.845 144.635 128.49 147.187 127.016L161.9 118.471C164.452 116.997 165.066 114.962 163.27 113.926C161.474 112.889 157.95 113.244 155.398 114.719L140.696 123.267C138.145 124.742 137.529 126.776 139.321 127.811Z" fill="#EBEBEB"/>
<path d="M50.7481 135.691L35.7832 127.051L50.7481 118.411V135.691Z" fill="#EBEBEB"/>
<path d="M93.0437 140.86L68.9238 126.925L93.0496 113.018L93.0437 140.86Z" fill="#EBEBEB"/>
<path d="M30.4998 115.489C30.5418 111.989 28.0974 104.708 24.5198 100.119C20.9422 95.5308 15.2712 92.1388 11.1981 93.478C7.40416 94.7251 7.75379 99.6868 12.2985 103.026C16.8432 106.366 23.6842 110.575 25.6317 116.277L29.7778 123.294L30.4998 115.489Z" fill="#065DA7"/>
<path opacity="0.1" d="M30.4998 115.489C30.5418 111.989 28.0974 104.708 24.5198 100.119C20.9422 95.5308 15.2712 92.1388 11.1981 93.478C7.40416 94.7251 7.75379 99.6868 12.2985 103.026C16.8432 106.366 23.6842 110.575 25.6317 116.277L29.7778 123.294L30.4998 115.489Z" fill="#1B1C1E"/>
<path d="M30.7038 120.282C30.5926 120.272 30.4972 120.188 30.4758 120.074C28.2756 108.097 18.7264 98.2684 12.9667 96.0528C12.8352 96.0019 12.7692 95.8538 12.8197 95.7223C12.8698 95.5911 13.015 95.5223 13.1502 95.5753C19.0193 97.8326 28.7454 107.822 30.9787 119.981C31.0045 120.12 30.9124 120.253 30.7735 120.278C30.7503 120.283 30.7267 120.284 30.7038 120.282Z" fill="white"/>
<path d="M28.8322 127.909C28.2936 125.935 25.9292 122.659 22.0745 119.93C17.8101 116.911 12.3849 115.481 11.1581 113.157C9.68445 110.365 12.0544 107.772 16.4647 108.372C20.8749 108.973 28.5688 115.093 29.701 124.182L28.8322 127.909Z" fill="#065DA7"/>
<path d="M29.7114 125.855C29.6145 125.846 29.5272 125.781 29.4929 125.683C25.9517 115.402 18.1849 111.716 14.5734 111.203C14.4337 111.183 14.3365 111.053 14.356 110.913C14.3759 110.773 14.4997 110.676 14.6452 110.696C18.6392 111.263 26.3622 115.023 29.9766 125.516C30.0227 125.65 29.9512 125.796 29.8178 125.842C29.7828 125.854 29.7464 125.858 29.7114 125.855Z" fill="white"/>
<path d="M161.127 105.526C161.127 105.526 161.618 98.1461 165.967 92.6682C170.316 87.19 170.049 84.9342 167.05 83.8282C164.052 82.7222 157.086 89.3245 158.636 98.1657C160.186 107.007 161.127 105.526 161.127 105.526Z" fill="#065DA7"/>
<path opacity="0.1" d="M161.127 105.526C161.127 105.526 161.618 98.1461 165.967 92.6682C170.316 87.19 170.049 84.9342 167.05 83.8282C164.052 82.7222 157.086 89.3245 158.636 98.1657C160.186 107.007 161.127 105.526 161.127 105.526Z" fill="#1B1C1E"/>
<path d="M159.796 101.311C159.706 101.311 159.631 101.241 159.625 101.15C159.117 93.0234 164.857 86.3555 167.005 84.8465C167.082 84.7923 167.189 84.8107 167.244 84.8881C167.298 84.9655 167.28 85.0723 167.202 85.1268C165.096 86.6064 159.469 93.1479 159.968 101.129C159.974 101.223 159.902 101.305 159.807 101.31C159.803 101.311 159.8 101.311 159.796 101.311Z" fill="white"/>
<path d="M159.946 111.62C159.946 111.62 162.567 112.529 165.934 113.062C169.302 113.595 170.788 111.985 170.788 111.985C170.788 111.985 169.462 108.826 167.549 107.94C167.549 107.94 170.792 108.601 173.394 110.337C173.394 110.337 175.451 110.369 176.269 107.23C176.269 107.23 175.051 105.341 170.963 104.32C170.963 104.32 173.45 103.694 177.034 104.608C177.303 104.715 178.449 100.657 178.795 98.785C179.141 96.9127 178.389 96.9326 176.93 96.5428C175.47 96.153 170.636 95.0673 169.723 95.8701C168.809 96.6729 168.345 99.4175 168.345 99.4175C168.345 99.4175 167.743 97.798 168.208 95.9386C168.208 95.9386 166.894 95.4254 164.856 96.0182C163.189 96.5034 163.108 97.6377 163.183 98.9202C163.238 99.8574 163.464 100.856 163.905 102.175C163.905 102.175 162.605 100.509 162.565 96.8976C162.565 96.8976 159.153 98.5926 158.571 101.979C158.255 103.81 157.809 109.188 159.946 111.62Z" fill="#065DA7"/>
<path d="M160.589 110.962C160.66 110.962 160.728 110.922 160.76 110.854C163.478 105.209 173.581 98.6479 177.201 97.9439C177.303 97.924 177.371 97.8245 177.351 97.7217C177.331 97.6189 177.23 97.553 177.128 97.5721C173.45 98.288 163.18 104.954 160.419 110.691C160.374 110.785 160.413 110.898 160.508 110.943C160.534 110.956 160.562 110.962 160.589 110.962Z" fill="white"/>
<path d="M29.1832 130.52C28.7654 130.52 28.5156 130.174 28.5156 129.596V67.6263L104.406 23.8108L104.407 85.5314C104.407 86.4782 103.739 87.6343 102.919 88.1081L29.7877 130.331C29.5737 130.454 29.3644 130.52 29.1832 130.52Z" fill="#FAFAFA"/>
<path d="M104.191 24.184L104.192 85.5314C104.192 86.395 103.56 87.4895 102.812 87.9213L29.6805 130.144C29.4989 130.248 29.3272 130.304 29.1835 130.304C28.7757 130.304 28.7315 129.809 28.7315 129.596V67.7504L104.191 24.184ZM104.622 23.4372L28.3008 67.5018V129.596C28.3008 130.318 28.6603 130.735 29.1835 130.735C29.3979 130.735 29.64 130.665 29.896 130.517L103.027 88.2945C103.908 87.7857 104.622 86.5486 104.622 85.5314L104.622 23.4372Z" fill="#E0E0E0"/>
<path d="M28.3008 67.5017V77.8703L104.622 33.8065L104.622 23.4372L28.3008 67.5017Z" fill="#065DA7"/>
<path d="M34.2871 68.0551L34.2875 69.542C34.2875 69.8459 34.503 69.9701 34.766 69.8183L58.2312 56.2707L58.2309 53.6786L34.7657 67.2262C34.5023 67.378 34.2871 67.7512 34.2871 68.0551Z" fill="#FAFAFA"/>
<path d="M60.7452 52.2267C61.0094 52.0742 61.2238 52.1979 61.2238 52.503V53.9899C61.2238 54.2949 61.0094 54.6663 60.7452 54.8188L58.2308 56.2707L58.2305 53.6786L60.7452 52.2267Z" fill="#455A64"/>
<path d="M28.3008 64.1599C28.3008 63.1423 29.0151 61.9056 29.896 61.3968L103.027 19.1743C103.908 18.6655 104.622 19.0782 104.622 20.0953V23.4372L28.3008 67.5017V64.1599Z" fill="#455A64"/>
<path d="M96.1389 24.8858C95.7255 25.1245 95.3906 25.7048 95.3906 26.1819C95.3906 26.6589 95.7255 26.8527 96.1389 26.614C96.5522 26.3753 96.8871 25.795 96.8871 25.3179C96.8871 24.8405 96.5519 24.6471 96.1389 24.8858Z" fill="#065DA7"/>
<path d="M98.51 23.5153C98.0966 23.7541 97.7617 24.3343 97.7617 24.8114C97.7617 25.2885 98.0966 25.4823 98.51 25.2435C98.9233 25.0048 99.2582 24.4246 99.2582 23.9475C99.2582 23.47 98.9233 23.2766 98.51 23.5153Z" fill="#065DA7"/>
<path d="M100.879 22.1448C100.466 22.3835 100.131 22.9638 100.131 23.4409C100.131 23.9184 100.466 24.1118 100.879 23.873C101.292 23.6343 101.627 23.0541 101.627 22.577C101.627 22.0995 101.292 21.9061 100.879 22.1448Z" fill="#065DA7"/>
<g opacity="0.1">
<path d="M80.6787 40.5576C79.7754 41.0793 79.043 42.3477 79.043 43.3911C79.043 44.4344 79.7754 44.8573 80.6787 44.3357C81.5821 43.814 82.3145 42.5455 82.3145 41.5022C82.3145 40.4589 81.5821 40.0359 80.6787 40.5576Z" fill="#1B1C1E"/>
<path d="M73.1963 44.8776C72.2929 45.3993 71.5605 46.6677 71.5605 47.7111C71.5605 48.7544 72.2929 49.1773 73.1963 48.6557C74.0996 48.134 74.832 46.8656 74.832 45.8222C74.832 44.7789 74.0996 44.3559 73.1963 44.8776Z" fill="#1B1C1E"/>
<path d="M88.1611 36.2372C87.2578 36.7589 86.5254 38.0274 86.5254 39.0707C86.5254 40.114 87.2578 40.537 88.1611 40.0153C89.0645 39.4936 89.7969 38.2252 89.7969 37.1819C89.7969 36.1389 89.0645 35.7159 88.1611 36.2372Z" fill="#1B1C1E"/>
<path d="M95.6436 31.9092C94.7402 32.4308 94.0078 33.6993 94.0078 34.7426C94.0078 35.786 94.7402 36.2089 95.6436 35.6872C96.5469 35.1656 97.2793 33.8971 97.2793 32.8538C97.2789 31.8104 96.5469 31.3875 95.6436 31.9092Z" fill="#1B1C1E"/>
</g>
<path d="M35.8823 78.6775L53.6427 68.4235C54.5236 67.9147 55.2379 68.3273 55.2379 69.3445V86.3964C55.2379 87.4136 54.5236 88.6507 53.6427 89.1595L35.8827 99.4139C35.0018 99.9226 34.2875 99.51 34.2875 98.4928L34.2871 81.4406C34.2871 80.4234 35.0015 79.1862 35.8823 78.6775Z" fill="#E0E0E0"/>
<path d="M61.3257 63.9893L98.5393 42.5028C99.4201 41.9941 100.134 42.4067 100.134 43.4239V60.4758C100.134 61.493 99.4201 62.7301 98.5393 63.2389L61.3261 84.7253C60.4452 85.2341 59.7308 84.8218 59.7308 83.8043L59.7305 66.752C59.7305 65.7352 60.4444 64.4981 61.3257 63.9893Z" fill="#E0E0E0"/>
<path d="M35.8823 104.598L64.1181 88.2959C64.999 87.7872 65.7133 88.1486 65.7137 89.1028C65.7137 90.0569 64.9997 91.2429 64.1185 91.7516L35.8823 108.054C35.0015 108.563 34.2871 108.201 34.2871 107.247C34.2871 106.292 35.0011 105.107 35.8823 104.598Z" fill="#E0E0E0"/>
<path d="M35.8823 110.645L64.1181 94.343C64.999 93.8343 65.7133 94.1957 65.7137 95.1499C65.7137 96.104 64.9997 97.29 64.1185 97.7987L35.8823 114.101C35.0015 114.61 34.2871 114.248 34.2871 113.294C34.2871 112.34 35.0011 111.154 35.8823 110.645Z" fill="#E0E0E0"/>
<path d="M35.8823 116.692L64.1181 100.39C64.999 99.8817 65.7133 100.243 65.7137 101.197C65.7137 102.151 64.9997 103.337 64.1185 103.846L35.8823 120.148C35.0015 120.657 34.2871 120.296 34.2871 119.342C34.2871 118.387 35.0011 117.201 35.8823 116.692Z" fill="#E0E0E0"/>
<path d="M49.2539 96.1869C49.2539 95.5764 49.6824 94.8341 50.211 94.529L99.1769 66.2586C99.7056 65.9536 100.562 65.9532 101.091 66.2586L102.17 66.8816C102.699 67.1867 103.127 67.929 103.127 68.5395V106.073C103.127 106.681 102.696 107.427 102.17 107.731L53.204 136.001C52.6775 136.305 51.8162 136.305 51.2897 136.001L50.211 135.378C49.6846 135.075 49.2539 134.328 49.2539 133.721V96.1869Z" fill="#065DA7"/>
<path opacity="0.4" d="M49.5312 95.2442L52.2479 96.811L102.844 67.5964C102.672 67.2976 102.432 67.0349 102.169 66.8809L101.087 66.2605C100.562 65.9525 99.7015 65.9525 99.1761 66.2605L50.2102 94.5291C49.9431 94.6823 49.7033 94.945 49.5312 95.2442Z" fill="white"/>
<path opacity="0.1" d="M49.252 96.1858V133.718C49.252 134.33 49.6823 135.072 50.212 135.376L51.2896 136C51.3711 136.046 51.4573 136.087 51.5523 136.118C51.6746 136.159 51.8058 136.191 51.9461 136.209C52.1952 136.241 52.4579 136.232 52.7025 136.182C52.7659 136.168 52.8292 136.15 52.8882 136.132C52.9291 136.118 52.9652 136.105 53.0013 136.087C52.8248 136.15 52.6708 136.141 52.5441 136.077C52.3628 135.982 52.2497 135.765 52.2497 135.448V97.9155C52.2497 97.5217 52.449 97.2225 52.7478 97.1006L52.2497 96.811L49.5331 95.2442C49.3606 95.543 49.252 95.8823 49.252 96.1858Z" fill="#1B1C1E"/>
<path opacity="0.2" d="M52.25 96.8107L74.9264 105.283C76.543 105.885 78.3586 105.287 79.3006 103.843L82.942 98.264L103.027 67.4922L83.6681 98.4737L103.127 106.089C103.122 106.397 103.009 106.741 102.828 107.044L83.6136 98.5606L79.382 105.333C78.4087 106.886 76.4432 107.493 74.768 106.75L71.7552 105.42L52.5447 136.078C52.3635 135.983 52.2504 135.765 52.2504 135.449V134.824L71.6612 105.379L52.25 96.8107Z" fill="#1B1C1E"/>
<path d="M92.6484 53.721V139.893C92.6484 140.911 93.3628 141.323 94.2437 140.814L132.956 118.464C133.836 117.956 134.551 116.718 134.551 115.701V29.5289C134.551 28.5117 133.836 28.0991 132.956 28.6078L94.2437 50.9579C93.3628 51.4666 92.6484 52.7038 92.6484 53.721Z" fill="#FAFAFA" stroke="#E0E0E0" stroke-width="0.430967" stroke-miterlimit="10"/>
<path d="M94.8906 55.3269C94.8906 55.0881 95.0763 54.7875 95.3055 54.6552L99.7153 52.1103C99.9445 51.978 100.13 52.0642 100.13 52.3029C100.13 52.5413 99.9445 52.8419 99.7153 52.9742L95.3058 55.5195C95.0763 55.6514 94.8906 55.5652 94.8906 55.3269Z" fill="#455A64"/>
<path d="M94.8906 57.0429C94.8906 56.8042 95.0763 56.5036 95.3055 56.3713L99.7153 53.8263C99.9445 53.6941 100.13 53.7803 100.13 54.019C100.13 54.2577 99.9445 54.558 99.7153 54.6903L95.3058 57.2356C95.0763 57.3675 94.8906 57.2813 94.8906 57.0429Z" fill="#455A64"/>
<path d="M94.8906 58.759C94.8906 58.5202 95.0763 58.2196 95.3055 58.0874L99.7153 55.5424C99.9445 55.4101 100.13 55.4963 100.13 55.735C100.13 55.9738 99.9445 56.274 99.7153 56.4063L95.3058 58.9516C95.0763 59.0835 94.8906 58.9973 94.8906 58.759Z" fill="#455A64"/>
<path d="M131.558 36.6621V35.9739C131.558 35.9326 131.528 35.9131 131.49 35.93L130.96 36.1691C130.922 36.1861 130.884 36.1673 130.871 36.1282C130.84 36.0306 130.801 35.9429 130.753 35.8652C130.732 35.8302 130.727 35.7735 130.745 35.7366L131.099 35.0237C131.117 34.9869 131.103 34.9405 131.067 34.9199L130.683 34.6984C130.648 34.6778 130.6 34.6889 130.578 34.7231L130.137 35.3859C130.114 35.4202 130.063 35.4441 130.022 35.443C129.931 35.4408 129.835 35.45 129.735 35.4721C129.695 35.4809 129.659 35.457 129.655 35.4161L129.597 34.8373C129.593 34.7964 129.561 34.7799 129.525 34.8005L128.929 35.1446C128.894 35.1652 128.862 35.2149 128.858 35.2558L128.798 35.919C128.795 35.9599 128.767 36.0151 128.736 36.0428C128.62 36.1496 128.509 36.2671 128.405 36.3931C128.379 36.4248 128.327 36.4399 128.288 36.4263L127.905 36.2926C127.867 36.2789 127.818 36.297 127.798 36.3323L127.36 37.0913C127.339 37.127 127.348 37.1775 127.379 37.2044L127.686 37.4689C127.717 37.4958 127.73 37.5485 127.716 37.5868C127.659 37.74 127.612 37.8948 127.578 38.0488C127.569 38.0889 127.535 38.1405 127.502 38.1644L126.957 38.5476C126.924 38.5712 126.896 38.6239 126.896 38.6648V39.3529C126.896 39.3942 126.927 39.4137 126.964 39.3968L127.495 39.1577C127.532 39.1407 127.571 39.1595 127.583 39.1986C127.614 39.2962 127.654 39.3839 127.701 39.4616C127.723 39.4966 127.728 39.5534 127.71 39.5902L127.356 40.3031C127.337 40.3399 127.352 40.3863 127.387 40.407L127.771 40.6284C127.806 40.649 127.854 40.638 127.877 40.6037L128.317 39.9409C128.34 39.9067 128.392 39.8827 128.433 39.8835C128.524 39.8857 128.62 39.8765 128.72 39.8543C128.76 39.8455 128.795 39.8695 128.799 39.9103L128.858 40.4895C128.862 40.5304 128.894 40.547 128.929 40.5263L129.525 40.1822C129.561 40.1616 129.593 40.1119 129.597 40.071L129.656 39.4078C129.66 39.3669 129.688 39.3117 129.718 39.284C129.834 39.1772 129.945 39.0597 130.049 38.9337C130.075 38.902 130.127 38.8869 130.166 38.9005L130.549 39.0339C130.587 39.0475 130.635 39.0295 130.656 38.9941L131.094 38.2352C131.115 38.1998 131.106 38.149 131.075 38.1221L130.768 37.8576C130.737 37.8307 130.724 37.778 130.738 37.7397C130.795 37.5864 130.842 37.4317 130.876 37.2777C130.885 37.2375 130.919 37.1859 130.952 37.162L131.497 36.7789C131.531 36.7556 131.558 36.7033 131.558 36.6621ZM129.228 38.8261C128.672 39.147 128.221 38.8869 128.221 38.2448C128.221 37.6026 128.672 36.822 129.228 36.5011C129.784 36.1802 130.235 36.4403 130.235 37.0824C130.234 37.7242 129.784 38.5049 129.228 38.8261Z" fill="#37474F"/>
<path d="M113.6 53.6458C118.124 51.0341 121.79 53.1514 121.79 58.3743C121.79 63.5973 118.124 69.9483 113.6 72.56C109.077 75.1717 105.41 73.0544 105.41 67.8315C105.411 62.6081 109.077 56.2571 113.6 53.6458Z" fill="#455A64"/>
<path d="M113.544 57.7561C115.011 56.9088 116.201 57.5955 116.201 59.2898C116.201 60.9845 115.011 63.0451 113.544 63.892C112.076 64.739 110.887 64.0527 110.887 62.358C110.887 60.6636 112.076 58.6031 113.544 57.7561Z" fill="#065DA7"/>
<path d="M118.779 66.7914C118.779 64.0073 116.824 62.8789 114.413 64.2711L112.906 65.1413C110.496 66.5332 108.541 69.9185 108.541 72.7022V73.4615C108.976 73.6059 109.449 73.6774 109.948 73.6785C111.048 73.6807 112.286 73.3185 113.6 72.56C115.565 71.4253 117.367 69.584 118.779 67.4372V66.7914Z" fill="#065DA7"/>
<path d="M106.208 80.3309L120.992 71.7948C121.433 71.5406 121.79 71.7211 121.79 72.1982C121.79 72.6753 121.433 73.2685 120.992 73.5227L106.208 82.0588C105.767 82.313 105.41 82.1324 105.41 81.6553C105.41 81.1783 105.767 80.5855 106.208 80.3309Z" fill="#065DA7"/>
<path d="M104.622 86.4366L122.58 76.0573C123.021 75.8031 123.378 75.9837 123.378 76.4608C123.378 76.9378 123.021 77.531 122.58 77.7852L104.622 88.1644C104.181 88.4186 103.824 88.2381 103.824 87.761C103.824 87.2839 104.181 86.6908 104.622 86.4366Z" fill="#455A64"/>
<path d="M123.057 84.4243L128.085 81.5209C128.349 81.3684 128.564 81.438 128.564 81.6767C128.564 81.9155 128.349 82.2327 128.085 82.3852L123.057 85.2886C122.793 85.4412 122.578 85.3715 122.578 85.1328C122.578 84.8941 122.793 84.5769 123.057 84.4243Z" fill="#37474F"/>
<path d="M97.9363 97.2027L105.32 92.9398C105.761 92.6856 106.118 92.8915 106.118 93.4003V98.4704C106.118 98.9791 105.761 99.5977 105.32 99.8519L97.9363 104.115C97.4957 104.369 97.1387 104.163 97.1387 103.654V98.5842C97.1387 98.0754 97.4957 97.4569 97.9363 97.2027Z" fill="#065DA7"/>
<path d="M99.1133 97.9111L104.142 95.0077C104.406 94.8552 104.62 94.9248 104.62 95.1635C104.62 95.4022 104.406 95.7194 104.142 95.872L99.1133 98.7754C98.8492 98.9279 98.6348 98.8583 98.6348 98.6196C98.6348 98.3809 98.8488 98.0636 99.1133 97.9111Z" fill="#FAFAFA"/>
<path d="M98.6348 100.468V101.955C98.6348 102.26 98.8492 102.384 99.1133 102.231L104.142 99.3277C104.406 99.1751 104.62 98.8038 104.62 98.4987V97.0118C104.62 96.7068 104.406 96.583 104.142 96.7355L99.113 99.639C98.8488 99.7919 98.6348 100.163 98.6348 100.468Z" fill="#FAFAFA"/>
<path d="M109.907 90.2905L117.291 86.0277C117.731 85.7735 118.088 85.9794 118.088 86.4882V91.5582C118.088 92.067 117.731 92.6856 117.291 92.9398L109.907 97.2027C109.466 97.4569 109.109 97.2509 109.109 96.7422V91.6721C109.109 91.1637 109.466 90.5451 109.907 90.2905Z" fill="#065DA7"/>
<path d="M111.084 90.9994L116.112 88.0959C116.377 87.9434 116.591 88.013 116.591 88.2518C116.591 88.4905 116.377 88.8077 116.112 88.9602L111.084 91.8637C110.82 92.0162 110.605 91.9465 110.605 91.7078C110.605 91.4691 110.82 91.1519 111.084 90.9994Z" fill="#FAFAFA"/>
<path d="M110.605 93.5565V95.043C110.605 95.3481 110.82 95.4719 111.084 95.3194L116.112 92.4159C116.377 92.2634 116.591 91.892 116.591 91.587L116.591 90.1001C116.591 89.795 116.377 89.6712 116.113 89.8238L111.084 92.7272C110.82 92.8801 110.605 93.2511 110.605 93.5565Z" fill="#FAFAFA"/>
<path d="M121.88 83.3784L129.263 79.1155C129.704 78.8613 130.061 79.0673 130.061 79.576V84.6461C130.061 85.1549 129.704 85.7734 129.263 86.0276L121.88 90.2905C121.439 90.5447 121.082 90.3388 121.082 89.83V84.7599C121.082 84.2512 121.439 83.6326 121.88 83.3784Z" fill="#065DA7"/>
<path d="M123.057 84.0869L128.085 81.1834C128.349 81.0309 128.564 81.1005 128.564 81.3393C128.564 81.578 128.35 81.8952 128.085 82.0477L123.057 84.9512C122.793 85.1037 122.578 85.0341 122.578 84.7953C122.578 84.5566 122.793 84.2398 123.057 84.0869Z" fill="#FAFAFA"/>
<path d="M122.578 86.644V88.1305C122.578 88.4356 122.793 88.5594 123.057 88.4068L128.085 85.5034C128.349 85.3509 128.564 84.9795 128.564 84.6745V83.1876C128.564 82.8825 128.35 82.7587 128.085 82.9112L123.056 85.8147C122.793 85.9676 122.578 86.3389 122.578 86.644Z" fill="#FAFAFA"/>
<path d="M98.7319 108.838L128.464 91.6721C129.345 91.1633 130.059 91.5247 130.059 92.4789C130.059 93.4331 129.345 94.6194 128.464 95.1278L98.7319 112.294C97.8511 112.803 97.1367 112.441 97.1367 111.487C97.1367 110.532 97.8511 109.347 98.7319 108.838Z" fill="#E0E0E0"/>
<path d="M98.7319 115.75L128.464 98.5838C129.345 98.0751 130.059 98.4365 130.059 99.3907C130.059 100.345 129.345 101.531 128.464 102.04L98.7319 119.206C97.8511 119.714 97.1367 119.353 97.1367 118.399C97.1367 117.445 97.8511 116.259 98.7319 115.75Z" fill="#E0E0E0"/>
<path d="M108.411 118.803L118.788 112.811C119.228 112.557 119.585 112.763 119.585 113.272V116.614C119.585 117.123 119.228 117.741 118.788 117.995L108.411 123.986C107.97 124.241 107.613 124.035 107.613 123.526V120.184C107.613 119.675 107.97 119.057 108.411 118.803Z" fill="#065DA7"/>
<path d="M99.383 109.346C98.9697 109.585 98.6348 110.165 98.6348 110.642C98.6348 111.119 98.9697 111.312 99.383 111.074C99.7964 110.836 100.131 110.255 100.131 109.778C100.131 109.301 99.7964 109.107 99.383 109.346Z" fill="#FAFAFA"/>
<path d="M101.754 107.975C101.341 108.214 101.006 108.794 101.006 109.271C101.006 109.748 101.341 109.942 101.754 109.703C102.167 109.464 102.502 108.884 102.502 108.407C102.502 107.93 102.167 107.737 101.754 107.975Z" fill="#FAFAFA"/>
<path d="M104.123 106.605C103.71 106.843 103.375 107.424 103.375 107.901C103.375 108.378 103.71 108.571 104.123 108.333C104.537 108.094 104.871 107.514 104.871 107.037C104.871 106.56 104.536 106.366 104.123 106.605Z" fill="#FAFAFA"/>
<path d="M106.494 105.234C106.081 105.473 105.746 106.053 105.746 106.53C105.746 107.007 106.081 107.201 106.494 106.962C106.908 106.724 107.243 106.143 107.243 105.666C107.243 105.189 106.908 104.995 106.494 105.234Z" fill="#FAFAFA"/>
<path d="M108.865 103.864C108.452 104.102 108.117 104.683 108.117 105.16C108.117 105.637 108.452 105.831 108.865 105.592C109.279 105.353 109.614 104.773 109.614 104.296C109.614 103.819 109.279 103.625 108.865 103.864Z" fill="#FAFAFA"/>
<path d="M111.235 102.493C110.821 102.732 110.486 103.312 110.486 103.789C110.486 104.266 110.821 104.46 111.235 104.221C111.648 103.983 111.983 103.402 111.983 102.925C111.983 102.448 111.648 102.254 111.235 102.493Z" fill="#FAFAFA"/>
<path d="M113.606 101.123C113.192 101.361 112.857 101.942 112.857 102.419C112.857 102.896 113.192 103.089 113.606 102.851C114.019 102.612 114.354 102.032 114.354 101.555C114.354 101.077 114.019 100.884 113.606 101.123Z" fill="#FAFAFA"/>
<path d="M99.383 116.265C98.9697 116.504 98.6348 117.084 98.6348 117.561C98.6348 118.039 98.9697 118.232 99.383 117.994C99.7964 117.755 100.131 117.175 100.131 116.698C100.131 116.22 99.7964 116.027 99.383 116.265Z" fill="#FAFAFA"/>
<path d="M101.754 114.895C101.341 115.134 101.006 115.714 101.006 116.191C101.006 116.668 101.341 116.862 101.754 116.623C102.167 116.384 102.502 115.804 102.502 115.327C102.502 114.85 102.167 114.656 101.754 114.895Z" fill="#FAFAFA"/>
<path d="M104.123 113.524C103.71 113.763 103.375 114.343 103.375 114.82C103.375 115.298 103.71 115.491 104.123 115.253C104.537 115.014 104.871 114.434 104.871 113.957C104.871 113.479 104.536 113.286 104.123 113.524Z" fill="#FAFAFA"/>
<path d="M106.494 112.154C106.081 112.392 105.746 112.973 105.746 113.45C105.746 113.927 106.081 114.121 106.494 113.882C106.908 113.643 107.243 113.063 107.243 112.586C107.243 112.109 106.908 111.915 106.494 112.154Z" fill="#FAFAFA"/>
<path d="M108.865 110.783C108.452 111.022 108.117 111.602 108.117 112.079C108.117 112.556 108.452 112.75 108.865 112.511C109.279 112.273 109.614 111.692 109.614 111.215C109.614 110.738 109.279 110.545 108.865 110.783Z" fill="#FAFAFA"/>
<path d="M111.235 109.413C110.821 109.651 110.486 110.232 110.486 110.709C110.486 111.186 110.821 111.38 111.235 111.141C111.648 110.902 111.983 110.322 111.983 109.845C111.982 109.368 111.648 109.174 111.235 109.413Z" fill="#FAFAFA"/>
<path d="M113.606 108.042C113.192 108.281 112.857 108.861 112.857 109.338C112.857 109.815 113.192 110.009 113.606 109.77C114.019 109.532 114.354 108.951 114.354 108.474C114.354 107.997 114.019 107.803 113.606 108.042Z" fill="#FAFAFA"/>
<path d="M146.85 123.618C145.558 123.618 144.332 123.299 143.222 122.658C140.568 121.125 139.045 117.917 139.045 113.857C139.045 106.716 143.583 98.5016 149.377 95.1568C152.497 93.356 155.595 93.1604 158.102 94.6079C160.757 96.1409 162.28 99.349 162.28 103.41C162.28 110.55 157.741 118.765 151.947 122.109C150.209 123.113 148.477 123.618 146.85 123.618ZM154.462 98.7927C153.533 98.7927 152.551 99.2595 151.947 99.608C147.739 102.037 144.185 108.562 144.185 113.857C144.185 116 144.785 117.626 145.792 118.207C146.938 118.869 148.53 118.147 149.377 117.658C153.585 115.229 157.139 108.704 157.139 103.41C157.139 101.267 156.539 99.6404 155.532 99.059C155.203 98.8686 154.836 98.7927 154.462 98.7927Z" fill="#455A64"/>
<path d="M158.06 104.553C158.06 100.542 155.533 99.0591 155.533 99.0591C156.539 99.6404 157.14 101.267 157.14 103.41C157.14 108.704 153.585 115.229 149.378 117.658C148.531 118.147 146.939 118.869 145.793 118.208C145.793 118.208 147.925 119.531 150.872 117.924C155.137 115.597 158.06 109.847 158.06 104.553Z" fill="#37474F"/>
<path d="M154.008 54.4168C154.008 52.9491 152.818 51.7595 151.351 51.7595C149.883 51.7595 148.693 52.9491 148.693 54.4168C148.693 54.4194 148.694 54.4216 148.694 54.4238H148.693V96.6835C148.693 97.0762 148.953 97.469 149.472 97.7685C150.51 98.3675 152.192 98.3675 153.23 97.7685C153.749 97.469 154.008 97.0762 154.008 96.6835V54.4242H154.008C154.008 54.4216 154.008 54.4194 154.008 54.4168Z" fill="#37474F"/>
<path d="M151.887 63.8603C151.887 62.8818 151.2 61.6915 150.352 61.2023C149.921 60.9532 149.533 60.9359 149.255 61.1054L149.253 61.1031L142.696 64.8808L142.537 64.9751C142.514 64.9866 142.492 64.998 142.473 65.0131C142.36 65.0886 142.254 65.1756 142.16 65.2699C141.763 65.6626 141.518 66.2104 141.518 66.8113C141.518 67.6347 141.975 68.3527 142.647 68.723C142.957 68.8891 143.308 68.9835 143.686 68.9835C144.06 68.9835 144.415 68.8891 144.721 68.723C144.763 68.7002 144.805 68.674 144.846 68.6512L151.444 64.851L151.443 64.8491C151.717 64.687 151.887 64.3459 151.887 63.8603Z" fill="#455A64"/>
<path d="M151.886 74.4429C151.886 73.4644 151.199 72.2741 150.352 71.7848C149.921 71.5362 149.532 71.5185 149.254 71.6879L149.252 71.6857L141.567 76.0989L141.408 76.1932C141.386 76.2047 141.363 76.2161 141.344 76.2312C141.231 76.3067 141.125 76.3937 141.031 76.488C140.634 76.8807 140.389 77.4285 140.389 78.0294C140.389 78.8528 140.846 79.5708 141.518 79.9411C141.828 80.1072 142.179 80.2019 142.557 80.2019C142.931 80.2019 143.286 80.1076 143.592 79.9411C143.634 79.9182 143.675 79.8921 143.717 79.8692L151.444 75.4332L151.442 75.4314C151.716 75.27 151.886 74.9285 151.886 74.4429Z" fill="#455A64"/>
</svg>
