<svg width="381" height="248" viewBox="0 0 381 248" fill="none" xmlns="http://www.w3.org/2000/svg">
<path d="M46.4619 72.8745C46.0929 72.8753 45.7273 72.8032 45.3862 72.6622C45.0452 72.5213 44.7353 72.3143 44.4744 72.0533C41.4444 69.0233 41.8869 65.5095 42.2244 62.9483C42.5319 60.5258 42.5544 59.517 41.5682 58.527C40.5819 57.537 39.5694 57.5633 37.1469 57.8708C34.5819 58.197 31.0719 58.6208 28.0419 55.6208C25.0119 52.6208 25.4582 49.0808 25.7919 46.5195C26.0994 44.0933 26.1219 43.0845 25.1357 42.0983C24.1494 41.112 23.1369 41.1345 20.7144 41.442C18.1532 41.7683 14.6394 42.192 11.6094 39.192C8.57943 36.192 8.99193 32.6295 9.33693 30.0683C9.64443 27.6458 9.66693 26.637 8.68068 25.647C8.21862 25.1101 7.97619 24.4186 8.00185 23.7106C8.0275 23.0027 8.31935 22.3306 8.81907 21.8285C9.31879 21.3264 9.98956 21.0314 10.6974 21.0024C11.4051 20.9734 12.0978 21.2125 12.6369 21.672C15.6669 24.702 15.2244 28.212 14.8869 30.7733C14.5869 33.1995 14.5869 34.2083 15.5544 35.1945C16.5219 36.1808 17.5494 36.1583 19.9719 35.847C22.5369 35.5208 26.0469 35.097 29.0769 38.097C32.1069 41.097 31.6607 44.637 31.3269 47.1983C31.0194 49.6208 30.9969 50.6295 31.9832 51.6195C32.9694 52.6095 33.9782 52.5833 36.4007 52.2758C38.9657 51.9495 42.4757 51.5258 45.5057 54.5258C48.5357 57.5258 48.0932 61.0658 47.7557 63.627C47.4482 66.0533 47.4257 67.062 48.4119 68.0483C48.8048 68.4416 49.0722 68.9425 49.1806 69.4878C49.2889 70.033 49.2332 70.5981 49.0205 71.1117C48.8078 71.6254 48.4477 72.0644 47.9857 72.3735C47.5236 72.6826 46.9803 72.8478 46.4244 72.8483L46.4619 72.8745Z" fill="#065DA7" fill-opacity="0.8"/>
<path d="M122.125 240.25C127.717 240.25 132.25 235.717 132.25 230.125C132.25 224.533 127.717 220 122.125 220C116.533 220 112 224.533 112 230.125C112 235.717 116.533 240.25 122.125 240.25Z" fill="#065DA7" fill-opacity="0.1"/>
<path d="M377.618 247.041C377.249 247.042 376.883 246.97 376.542 246.828C376.201 246.687 375.891 246.479 375.631 246.216C372.601 243.186 373.043 239.676 373.381 237.111C373.688 234.689 373.711 233.68 372.725 232.694C371.738 231.708 370.726 231.73 368.303 232.038C365.742 232.36 362.228 232.806 359.198 229.788C356.168 226.769 356.615 223.248 356.948 220.683C357.256 218.26 357.278 217.251 356.292 216.265C355.306 215.279 354.293 215.301 351.871 215.609C349.31 215.931 345.796 216.378 342.766 213.359C339.736 210.34 340.182 206.819 340.516 204.254C340.823 201.831 340.846 200.823 339.86 199.836C339.591 199.577 339.376 199.267 339.229 198.924C339.081 198.581 339.004 198.212 339 197.838C338.997 197.465 339.068 197.094 339.209 196.749C339.35 196.403 339.559 196.089 339.823 195.825C340.087 195.561 340.401 195.352 340.746 195.21C341.092 195.068 341.462 194.997 341.836 195C342.209 195.003 342.578 195.081 342.921 195.228C343.265 195.375 343.575 195.589 343.835 195.858C346.865 198.888 346.422 202.398 346.085 204.963C345.777 207.385 345.755 208.394 346.741 209.38C347.727 210.366 348.736 210.348 351.158 210.04C353.723 209.714 357.233 209.268 360.263 212.29C363.293 215.313 362.847 218.83 362.513 221.395C362.206 223.818 362.183 224.826 363.17 225.813C364.156 226.799 365.165 226.776 367.591 226.473C370.152 226.146 373.662 225.7 376.692 228.723C379.722 231.745 379.28 235.263 378.942 237.828C378.635 240.25 378.612 241.259 379.598 242.249C379.991 242.642 380.259 243.143 380.367 243.688C380.475 244.234 380.42 244.799 380.207 245.312C379.994 245.826 379.634 246.265 379.172 246.574C378.71 246.883 378.167 247.048 377.611 247.049L377.618 247.041Z" fill="#FEA218" fill-opacity="0.6"/>
<path d="M41.4568 109.042L43.7855 113.76C43.9202 114.032 44.1188 114.267 44.3644 114.446C44.61 114.624 44.8952 114.74 45.1955 114.784L50.4043 115.534C50.7506 115.584 51.0759 115.73 51.3435 115.956C51.611 116.181 51.8101 116.477 51.9182 116.81C52.0262 117.143 52.039 117.499 51.9551 117.839C51.8711 118.179 51.6937 118.488 51.443 118.732L47.6743 122.404C47.4562 122.616 47.2931 122.878 47.199 123.168C47.1049 123.457 47.0827 123.765 47.1343 124.065L48.023 129.247C48.0827 129.592 48.0447 129.947 47.9132 130.271C47.7818 130.596 47.5622 130.877 47.2793 131.083C46.9964 131.289 46.6615 131.412 46.3125 131.437C45.9634 131.463 45.6142 131.39 45.3043 131.227L40.643 128.786C40.3741 128.645 40.0749 128.571 39.7712 128.571C39.4674 128.571 39.1682 128.645 38.8993 128.786L34.2418 131.235C33.9319 131.398 33.5827 131.47 33.2336 131.445C32.8846 131.419 32.5497 131.296 32.2668 131.09C31.9839 130.884 31.7643 130.603 31.6328 130.279C31.5014 129.954 31.4634 129.6 31.523 129.255L32.4118 124.072C32.4634 123.772 32.4411 123.464 32.3471 123.175C32.253 122.886 32.0899 122.623 31.8718 122.411L28.103 118.74C27.8523 118.496 27.675 118.186 27.591 117.847C27.5071 117.507 27.5198 117.15 27.6279 116.818C27.736 116.485 27.9351 116.189 28.2026 115.963C28.4702 115.738 28.7955 115.591 29.1418 115.541L34.3505 114.791C34.653 114.748 34.9402 114.631 35.1872 114.451C35.4343 114.272 35.6337 114.034 35.768 113.76L38.0968 109.042C38.2519 108.729 38.4914 108.466 38.7882 108.282C39.0851 108.098 39.4275 108 39.7768 108C40.1261 108 40.4685 108.098 40.7654 108.282C41.0622 108.466 41.3017 108.729 41.4568 109.042ZM13.9168 188.137L16.2455 192.855C16.3802 193.127 16.5788 193.362 16.8244 193.541C17.07 193.719 17.3552 193.835 17.6555 193.879L22.8605 194.629C23.2072 194.678 23.5329 194.824 23.801 195.049C24.069 195.275 24.2686 195.571 24.3771 195.904C24.4856 196.237 24.4987 196.593 24.4149 196.933C24.3311 197.273 24.1538 197.583 23.903 197.827L20.1343 201.499C19.9162 201.711 19.7531 201.973 19.659 202.263C19.5649 202.552 19.5427 202.86 19.5943 203.16L20.483 208.342C20.5419 208.687 20.5032 209.041 20.3714 209.365C20.2396 209.689 20.02 209.969 19.7372 210.175C19.4545 210.38 19.1199 210.503 18.7713 210.528C18.4227 210.553 18.0739 210.481 17.7643 210.319L13.1068 207.874C12.8379 207.732 12.5387 207.659 12.2349 207.659C11.9312 207.659 11.632 207.732 11.363 207.874L6.70554 210.319C6.39584 210.482 6.04659 210.555 5.69734 210.53C5.3481 210.505 5.01282 210.383 4.72947 210.178C4.44612 209.972 4.22602 209.691 4.0941 209.367C3.96218 209.042 3.92371 208.687 3.98304 208.342L4.87554 203.16C4.92712 202.86 4.9049 202.552 4.81082 202.263C4.71674 201.973 4.55362 201.711 4.33554 201.499L0.566792 197.831C0.316099 197.587 0.138738 197.278 0.0547723 196.938C-0.0291932 196.598 -0.0164098 196.242 0.0916738 195.909C0.199757 195.576 0.398826 195.28 0.666365 195.054C0.933903 194.829 1.25923 194.683 1.60554 194.632L6.81429 193.882C7.11463 193.839 7.39984 193.723 7.64544 193.544C7.89104 193.366 8.08968 193.131 8.22429 192.859L10.553 188.141C10.7074 187.827 10.9467 187.562 11.2437 187.377C11.5407 187.192 11.8837 187.093 12.2338 187.093C12.5838 187.093 12.927 187.19 13.2244 187.375C13.5219 187.559 13.7617 187.824 13.9168 188.137Z" fill="#FEA218" fill-opacity="0.4"/>
<path d="M160.814 41.3261C160.258 41.3263 159.714 41.1617 159.251 40.8529C158.788 40.5441 158.428 40.1051 158.215 39.5913C158.002 39.0775 157.946 38.5121 158.054 37.9665C158.162 37.4209 158.429 36.9196 158.823 36.5261C161.853 33.4961 165.363 33.9386 167.928 34.2761C170.35 34.5836 171.359 34.6061 172.349 33.6198C173.339 32.6336 173.313 31.6211 173.005 29.1986C172.679 26.6336 172.255 23.1236 175.255 20.0936C178.255 17.0636 181.795 17.5098 184.356 17.8436C186.783 18.1511 187.791 18.1736 188.778 17.1873C189.764 16.2011 189.741 15.1886 189.434 12.7661C189.108 10.2011 188.665 6.69109 191.684 3.66109C194.703 0.631094 198.224 1.07734 200.785 1.41109C203.211 1.71859 204.216 1.74109 205.206 0.754844C205.739 0.258044 206.445 -0.0124176 207.173 0.000438176C207.902 0.013294 208.597 0.308464 209.112 0.823763C209.628 1.33906 209.923 2.03426 209.936 2.76289C209.949 3.49151 209.678 4.19669 209.181 4.72984C206.151 7.75984 202.641 7.31734 200.08 6.97984C197.658 6.67234 196.645 6.64984 195.659 7.63609C194.673 8.62234 194.718 9.6161 195.029 12.0386C195.355 14.6036 195.798 18.1136 192.779 21.1436C189.76 24.1736 186.239 23.7273 183.678 23.3936C181.255 23.0861 180.246 23.0636 179.256 24.0498C178.266 25.0361 178.293 26.0448 178.6 28.4673C178.926 31.0323 179.369 34.5423 176.35 37.5723C173.331 40.6023 169.81 40.1598 167.249 39.8223C164.823 39.5148 163.814 39.4923 162.828 40.4786C162.566 40.7481 162.253 40.962 161.907 41.1077C161.561 41.2533 161.189 41.3276 160.814 41.3261Z" fill="#1B1C1E" fill-opacity="0.1"/>
<path d="M312.898 42.0293L315.227 46.7468C315.361 47.0195 315.559 47.2555 315.805 47.4345C316.051 47.6135 316.336 47.7301 316.637 47.7743L321.846 48.5243C322.192 48.5746 322.517 48.7208 322.785 48.9463C323.052 49.1719 323.251 49.4679 323.359 49.8007C323.467 50.1335 323.48 50.49 323.396 50.8297C323.312 51.1694 323.135 51.4789 322.884 51.723L319.116 55.398C318.898 55.6099 318.735 55.8715 318.641 56.1602C318.547 56.4489 318.525 56.7562 318.576 57.0555L319.468 62.2418C319.527 62.5868 319.489 62.9416 319.357 63.266C319.225 63.5903 319.005 63.8712 318.722 64.0769C318.438 64.2826 318.103 64.4048 317.754 64.4297C317.405 64.4547 317.055 64.3813 316.746 64.218L312.107 61.773C311.838 61.6318 311.539 61.558 311.235 61.558C310.931 61.558 310.632 61.6318 310.363 61.773L305.706 64.2218C305.396 64.3841 305.047 64.4566 304.699 64.4311C304.35 64.4057 304.015 64.2833 303.733 64.0777C303.45 63.8722 303.23 63.5917 303.098 63.268C302.967 62.9442 302.928 62.5901 302.987 62.2455L303.857 57.0593C303.908 56.7599 303.885 56.4527 303.791 56.1639C303.697 55.8752 303.534 55.6137 303.317 55.4018L299.567 51.7268C299.316 51.4826 299.139 51.1732 299.055 50.8334C298.971 50.4937 298.984 50.1373 299.092 49.8045C299.2 49.4716 299.399 49.1757 299.666 48.9501C299.934 48.7245 300.259 48.5783 300.606 48.528L305.811 47.778C306.111 47.7339 306.397 47.6173 306.642 47.4383C306.888 47.2593 307.086 47.0232 307.221 46.7505L309.549 42.033C309.705 41.7228 309.944 41.462 310.24 41.2796C310.535 41.0972 310.875 41.0004 311.223 41C311.57 40.9996 311.91 41.0956 312.206 41.2774C312.502 41.4591 312.741 41.7194 312.898 42.0293Z" fill="#065DA7" fill-opacity="0.4"/>
<path d="M298.767 186.125C298.323 186.125 297.885 186.02 297.489 185.818C297.093 185.616 296.751 185.322 296.491 184.962L287.543 172.617C287.325 172.318 287.167 171.979 287.08 171.619C286.992 171.259 286.977 170.886 287.034 170.52C287.091 170.154 287.22 169.803 287.414 169.487C287.607 169.171 287.861 168.897 288.161 168.679C288.46 168.461 288.8 168.305 289.16 168.219C289.521 168.134 289.894 168.12 290.26 168.179C290.626 168.238 290.976 168.368 291.291 168.563C291.606 168.758 291.88 169.013 292.096 169.313L301.043 181.658C301.347 182.078 301.529 182.574 301.569 183.091C301.609 183.608 301.506 184.125 301.27 184.587C301.035 185.049 300.677 185.437 300.235 185.708C299.793 185.979 299.286 186.124 298.767 186.125ZM348.275 154.973C347.756 154.972 347.248 154.828 346.807 154.557C346.365 154.286 346.007 153.898 345.772 153.436C345.536 152.974 345.433 152.456 345.473 151.94C345.513 151.423 345.695 150.927 345.998 150.507L354.946 138.162C355.163 137.863 355.437 137.609 355.752 137.416C356.066 137.223 356.416 137.093 356.781 137.035C357.146 136.977 357.519 136.991 357.878 137.077C358.238 137.163 358.577 137.319 358.876 137.536C359.175 137.753 359.429 138.027 359.622 138.341C359.815 138.656 359.945 139.006 360.003 139.371C360.061 139.736 360.047 140.109 359.961 140.468C359.875 140.828 359.719 141.167 359.502 141.466L350.555 153.811C350.293 154.171 349.951 154.464 349.554 154.666C349.158 154.868 348.72 154.973 348.275 154.973Z" fill="#97D729"/>
<rect x="98.8115" y="64" width="170.376" height="170.376" rx="85.1881" fill="white"/>
<rect x="98.8115" y="64" width="170.376" height="170.376" rx="85.1881" fill="#065DA7" fill-opacity="0.08"/>
<g clip-path="url(#clip0_621_125)">
<path d="M232.479 143.479L169.642 102.533C168.253 101.628 166.562 101.312 164.94 101.654C163.318 101.997 161.898 102.969 160.993 104.358L133.696 146.249C132.792 147.638 132.475 149.329 132.817 150.951C133.16 152.573 134.132 153.993 135.521 154.898L198.358 195.843C199.747 196.748 201.438 197.064 203.06 196.722C204.682 196.38 206.101 195.407 207.006 194.018L234.303 152.127C235.208 150.738 235.524 149.047 235.182 147.425C234.84 145.803 233.868 144.383 232.479 143.479ZM176.382 166.603L171.145 163.191C170.451 162.739 169.965 162.029 169.794 161.218C169.623 160.407 169.781 159.561 170.233 158.867C170.686 158.173 171.395 157.686 172.206 157.515C173.017 157.344 173.863 157.502 174.557 157.955L179.794 161.367C180.488 161.819 180.974 162.529 181.145 163.34C181.317 164.151 181.158 164.997 180.706 165.691C180.254 166.386 179.544 166.872 178.733 167.043C177.922 167.214 177.076 167.056 176.382 166.603ZM197.327 180.252L186.855 173.428C186.16 172.975 185.674 172.265 185.503 171.454C185.332 170.643 185.49 169.798 185.942 169.103C186.395 168.409 187.105 167.923 187.916 167.752C188.727 167.581 189.572 167.739 190.267 168.191L200.74 175.015C201.434 175.468 201.92 176.178 202.091 176.989C202.262 177.8 202.104 178.645 201.652 179.34C201.199 180.034 200.489 180.52 199.678 180.691C198.868 180.862 198.022 180.704 197.327 180.252ZM161.111 115.624L166.23 107.77L229.067 148.715L223.949 156.57L161.111 115.624Z" fill="#065DA7" fill-opacity="0.6"/>
</g>
<defs>
<clipPath id="clip0_621_125">
<rect width="100" height="100" fill="white" transform="translate(169.405 80) rotate(33.0886)"/>
</clipPath>
</defs>
</svg>
