<svg width="133" height="132" viewBox="0 0 133 132" fill="none" xmlns="http://www.w3.org/2000/svg">
<rect x="0.5" width="132" height="132" rx="66" fill="white"/>
<rect x="0.5" width="132" height="132" rx="66" fill="#065DA7" fill-opacity="0.08"/>
<path d="M94.625 28.4999H80.4609C78.7051 26.534 76.5538 24.9611 74.1479 23.8841C71.7421 22.8072 69.1359 22.2505 66.5 22.2505C63.8641 22.2505 61.2579 22.8072 58.8521 23.8841C56.4462 24.9611 54.2949 26.534 52.5391 28.4999H38.375C36.7174 28.4999 35.1277 29.1584 33.9556 30.3305C32.7835 31.5026 32.125 33.0923 32.125 34.7499V100.375C32.125 102.033 32.7835 103.622 33.9556 104.794C35.1277 105.966 36.7174 106.625 38.375 106.625H94.625C96.2826 106.625 97.8723 105.966 99.0444 104.794C100.217 103.622 100.875 102.033 100.875 100.375V34.7499C100.875 33.0923 100.217 31.5026 99.0444 30.3305C97.8723 29.1584 96.2826 28.4999 94.625 28.4999ZM66.5 28.4999C69.8152 28.4999 72.9946 29.8169 75.3388 32.1611C77.683 34.5053 79 37.6847 79 40.9999H54C54 37.6847 55.317 34.5053 57.6612 32.1611C60.0054 29.8169 63.1848 28.4999 66.5 28.4999ZM79 78.4999H54C53.1712 78.4999 52.3763 78.1707 51.7903 77.5846C51.2042 76.9986 50.875 76.2037 50.875 75.3749C50.875 74.5461 51.2042 73.7513 51.7903 73.1652C52.3763 72.5792 53.1712 72.2499 54 72.2499H79C79.8288 72.2499 80.6237 72.5792 81.2097 73.1652C81.7958 73.7513 82.125 74.5461 82.125 75.3749C82.125 76.2037 81.7958 76.9986 81.2097 77.5846C80.6237 78.1707 79.8288 78.4999 79 78.4999ZM79 65.9999H54C53.1712 65.9999 52.3763 65.6707 51.7903 65.0846C51.2042 64.4986 50.875 63.7037 50.875 62.8749C50.875 62.0461 51.2042 61.2513 51.7903 60.6652C52.3763 60.0792 53.1712 59.7499 54 59.7499H79C79.8288 59.7499 80.6237 60.0792 81.2097 60.6652C81.7958 61.2513 82.125 62.0461 82.125 62.8749C82.125 63.7037 81.7958 64.4986 81.2097 65.0846C80.6237 65.6707 79.8288 65.9999 79 65.9999Z" fill="#065DA7" fill-opacity="0.6"/>
</svg>
