<svg width="101" height="100" viewBox="0 0 101 100" fill="none" xmlns="http://www.w3.org/2000/svg">
<path d="M87.2734 22.9961C86.9801 22.6451 86.6132 22.3627 86.1988 22.169C85.7844 21.9753 85.3325 21.8749 84.875 21.875H21.8594L19.9492 11.3828C19.6876 9.94272 18.9288 8.64012 17.8052 7.70212C16.6816 6.76412 15.2645 6.25021 13.8008 6.25H6.75C5.9212 6.25 5.12634 6.57924 4.54029 7.16529C3.95424 7.75134 3.625 8.5462 3.625 9.375C3.625 10.2038 3.95424 10.9987 4.54029 11.5847C5.12634 12.1708 5.9212 12.5 6.75 12.5H13.7812L23.7656 67.3008C24.0597 68.926 24.778 70.4447 25.8477 71.7031C24.3713 73.0821 23.3057 74.843 22.769 76.7906C22.2323 78.7383 22.2455 80.7965 22.8071 82.7371C23.3688 84.6776 24.4569 86.4247 25.9509 87.7846C27.4448 89.1445 29.2863 90.0641 31.2709 90.4414C33.2556 90.8186 35.306 90.6389 37.1947 89.922C39.0835 89.2051 40.7367 87.9791 41.9713 86.38C43.2058 84.7808 43.9733 82.871 44.1886 80.8623C44.404 78.8536 44.0588 76.8245 43.1914 75H60.9336C60.2345 76.4636 59.8727 78.0655 59.875 79.6875C59.875 81.8507 60.5165 83.9654 61.7183 85.7641C62.9201 87.5627 64.6283 88.9646 66.6269 89.7924C68.6255 90.6203 70.8246 90.8369 72.9463 90.4148C75.068 89.9928 77.0168 88.9511 78.5465 87.4215C80.0761 85.8918 81.1178 83.943 81.5398 81.8213C81.9619 79.6996 81.7453 77.5005 80.9174 75.5019C80.0896 73.5033 78.6877 71.7951 76.8891 70.5933C75.0904 69.3915 72.9757 68.75 70.8125 68.75H32.9883C32.2564 68.7499 31.5479 68.4929 30.9861 68.0239C30.4243 67.5549 30.0449 66.9036 29.9141 66.1836L28.6758 59.375H73.9883C76.1838 59.3747 78.3095 58.6038 79.9949 57.1968C81.6804 55.7898 82.8185 53.8359 83.2109 51.6758L87.9609 25.5586C88.0414 25.1072 88.0214 24.6436 87.9026 24.2008C87.7838 23.7579 87.569 23.3466 87.2734 22.9961ZM70.8125 75C71.7396 75 72.6459 75.2749 73.4167 75.79C74.1876 76.3051 74.7884 77.0371 75.1432 77.8937C75.498 78.7502 75.5908 79.6927 75.4099 80.602C75.2291 81.5113 74.7826 82.3465 74.1271 83.0021C73.4715 83.6576 72.6363 84.1041 71.727 84.2849C70.8177 84.4658 69.8752 84.373 69.0187 84.0182C68.1621 83.6634 67.4301 83.0626 66.915 82.2917C66.3999 81.5209 66.125 80.6146 66.125 79.6875C66.125 78.4443 66.6189 77.252 67.4979 76.3729C68.377 75.4939 69.5693 75 70.8125 75ZM33.3125 75C34.2396 75 35.1459 75.2749 35.9167 75.79C36.6876 76.3051 37.2884 77.0371 37.6432 77.8937C37.998 78.7502 38.0908 79.6927 37.9099 80.602C37.7291 81.5113 37.2826 82.3465 36.6271 83.0021C35.9715 83.6576 35.1363 84.1041 34.227 84.2849C33.3177 84.4658 32.3752 84.373 31.5187 84.0182C30.6621 83.6634 29.9301 83.0626 29.415 82.2917C28.8999 81.5209 28.625 80.6146 28.625 79.6875C28.625 78.4443 29.1189 77.252 29.9979 76.3729C30.877 75.4939 32.0693 75 33.3125 75Z" fill="#1B1C1E" fill-opacity="0.4"/>
</svg>
