<svg width="24" height="25" viewBox="0 0 24 25" fill="none" xmlns="http://www.w3.org/2000/svg">
<path d="M20.25 7.12189H5.25C5.05109 7.12189 4.86032 7.04287 4.71967 6.90222C4.57902 6.76156 4.5 6.5708 4.5 6.37189C4.5 6.17297 4.57902 5.98221 4.71967 5.84156C4.86032 5.7009 5.05109 5.62189 5.25 5.62189H18C18.1989 5.62189 18.3897 5.54287 18.5303 5.40222C18.671 5.26156 18.75 5.0708 18.75 4.87189C18.75 4.67297 18.671 4.48221 18.5303 4.34156C18.3897 4.2009 18.1989 4.12189 18 4.12189H5.25C4.65326 4.12189 4.08097 4.35894 3.65901 4.7809C3.23705 5.20285 3 5.77515 3 6.37189V18.3719C3 18.9686 3.23705 19.5409 3.65901 19.9629C4.08097 20.3848 4.65326 20.6219 5.25 20.6219H20.25C20.6478 20.6219 21.0294 20.4639 21.3107 20.1825C21.592 19.9012 21.75 19.5197 21.75 19.1219V8.62189C21.75 8.22406 21.592 7.84253 21.3107 7.56123C21.0294 7.27992 20.6478 7.12189 20.25 7.12189ZM16.875 14.6219C16.6525 14.6219 16.435 14.5559 16.25 14.4323C16.065 14.3087 15.9208 14.133 15.8356 13.9274C15.7505 13.7218 15.7282 13.4956 15.7716 13.2774C15.815 13.0592 15.9222 12.8587 16.0795 12.7014C16.2368 12.5441 16.4373 12.4369 16.6555 12.3935C16.8738 12.3501 17.1 12.3724 17.3055 12.4575C17.5111 12.5427 17.6868 12.6869 17.8104 12.8719C17.934 13.0569 18 13.2744 18 13.4969C18 13.7953 17.8815 14.0814 17.6705 14.2924C17.4595 14.5034 17.1734 14.6219 16.875 14.6219Z" fill="#FEA218"/>
</svg>
